# xmcd
#
# Track frame offsets:
#	150
#	28789
#	46735
#	67015
#
# Disc length: 1289 seconds
#
# Revision: 0
# Processed by: cddbd v1.4b42PL0 Copyright (c) Steve Scherf et al.
# Submitted via: EZCDDA 4.3.3.2
#
DISCID=2f050704
DTITLE=Deep Fried - Sampler Platter
DYEAR=1900
DGENRE=
TTITLE0=Bad Situation
TTITLE1=Against the Wall
TTITLE2=Stop and Sing the Blues
TTITLE3=String of Pearls (live)
EXTD=
EXTT0=
EXTT1=
EXTT2=
EXTT3=
PLAYORDER=
